<svg xmlns="http://www.w3.org/2000/svg" width="193.36" height="193.36" viewBox="0 0 193.36 193.36">
  <g id="グループ化_14" data-name="グループ化 14" transform="translate(-1006.945 -419.891)">
    <ellipse id="楕円形_68" data-name="楕円形 68" cx="96.68" cy="96.68" rx="96.68" ry="96.68" transform="translate(1006.945 419.891)" fill="#4242ff" opacity="0.486"/>
    <ellipse id="楕円形_64" data-name="楕円形 64" cx="86.058" cy="86.058" rx="86.058" ry="86.058" transform="translate(1019.241 430.511)" fill="#4242ff"/>
    <path id="パス_7" data-name="パス 7" d="M4.981,0,25.608,3.771,32.879,23.23l-1.52,18.038L17.973,51.024,0,31.314,10.667,13.651Z" transform="translate(1157.208 540.195) rotate(87)" fill="#21ff21" opacity="0.62"/>
    <path id="パス_8" data-name="パス 8" d="M11.179,70.08h29.74l10.444-8.306L55,37.979,47.307,13.4,28.973,0,0,5.147,5.563,34.637l13.4,16.694Z" transform="matrix(0.985, 0.174, -0.174, 0.985, 1044.332, 498.739)" fill="#21ff21" opacity="0.62"/>
    <path id="パス_9" data-name="パス 9" d="M81.236.008l2.847,10.209L72.426,23.148,60.2,38.528l-14.8,10.1L27.22,41.235s-12.2-9.986-12.333-9.935C14.678,31.324,40.527-1.189,81.236.008Z" transform="translate(1024.063 430.503)" fill="#21ff21" opacity="0.62"/>
  </g>
</svg>
