<svg xmlns="http://www.w3.org/2000/svg" width="1285.835" height="819.928" viewBox="0 0 1285.835 819.928">
  <g id="グループ化_11" data-name="グループ化 11" transform="translate(-1350.863 -10393.263)" opacity="0.703">
    <g id="多角形ツール_1" data-name="多角形ツール 1" transform="matrix(0.996, -0.087, 0.087, 0.996, 1692.123, 10639.596)" fill="rgba(255,255,255,0)">
      <path d="M 180.9098358154297 184.0000152587891 L 8.090167045593262 184.0000152587891 C 8.09017276763916 184.0000152587891 8.090167999267578 184 8.090164184570312 184 C 8.090164184570312 184 8.090166091918945 183.9999847412109 8.090167045593262 183.9999847412109 L 94.5 11.18032169342041 C 94.49999237060547 11.1803503036499 94.49999237060547 11.1803503036499 94.5 11.1803503036499 C 94.50000762939453 11.1803503036499 94.50000762939453 11.1803503036499 94.50001525878906 11.1803503036499 L 180.9098358154297 183.9999847412109 C 180.9098358154297 184 180.9098358154297 184 180.9098510742188 184.0000152587891 C 180.9098358154297 184.0000152587891 180.9098358154297 184.0000152587891 180.9098358154297 184.0000152587891 C 180.9098358154297 184.0000152587891 180.9098358154297 184.0000152587891 180.9098358154297 184.0000152587891 Z" stroke="none"/>
      <path d="M 94.5 22.36068725585938 L 16.18032836914062 178.9999847412109 L 172.8196716308594 178.9999847412109 L 94.5 22.36068725585938 M 94.49998474121094 6.180328369140625 C 96.27539825439453 6.180328369140625 98.05081939697266 7.101654052734375 98.97212982177734 8.944290161132812 L 185.3819732666016 181.763916015625 C 187.0442047119141 185.0884552001953 184.6267395019531 188.9999847412109 180.9098358154297 188.9999847412109 L 8.090164184570312 188.9999847412109 C 4.373260498046875 188.9999847412109 1.955764770507812 185.0884552001953 3.618026733398438 181.763916015625 L 90.02787017822266 8.944290161132812 C 90.94916534423828 7.101654052734375 92.72457122802734 6.180328369140625 94.49998474121094 6.180328369140625 Z" stroke="none" fill="#fb426d"/>
    </g>
    <g id="多角形ツール_2" data-name="多角形ツール 2" transform="translate(2283.676 10649.176) rotate(30)" fill="rgba(255,255,255,0)">
      <path d="M 72.90982818603516 76 L 8.090171813964844 76 L 40.5 11.18034553527832 C 40.50000381469727 11.18034553527832 40.5000114440918 11.18034553527832 40.50001525878906 11.18034553527832 L 72.90982818603516 76 Z" stroke="none"/>
      <path d="M 40.5 22.36069869995117 L 16.18035125732422 71 L 64.81964111328125 71 L 40.5 22.36069869995117 M 40.5 6.180343627929688 C 42.27541351318359 6.180343627929688 44.05083084106445 7.101654052734375 44.97214126586914 8.94427490234375 L 77.3819580078125 73.76393890380859 C 79.04421997070312 77.08843994140625 76.62673950195312 81 72.90982055664062 81 L 8.090179443359375 81 C 4.373260498046875 81 1.955780029296875 77.08843994140625 3.6180419921875 73.76393890380859 L 36.02785873413086 8.94427490234375 C 36.94916915893555 7.101654052734375 38.72458648681641 6.180343627929688 40.5 6.180343627929688 Z" stroke="none" fill="#fb426d"/>
    </g>
    <g id="多角形ツール_3" data-name="多角形ツール 3" transform="translate(2468.676 10936.176) rotate(-30)" fill="rgba(255,255,255,0)">
      <path d="M 111.9098434448242 114.9999923706055 L 8.090164184570312 114.9999923706055 L 60.00000381469727 11.18033313751221 C 59.99999237060547 11.18035316467285 59.99999237060547 11.18035316467285 59.99999237060547 11.18035316467285 L 111.9098434448242 114.9999923706055 Z" stroke="none"/>
      <path d="M 59.99999237060547 22.36066436767578 L 16.18034362792969 109.9999847412109 L 103.8196640014648 109.9999847412109 L 59.99999237060547 22.36066436767578 M 60 6.180335998535156 C 61.77541351318359 6.180335998535156 63.55081558227539 7.101638793945312 64.47212982177734 8.944259643554688 L 116.3819808959961 112.7639389038086 C 118.0442276000977 116.0884399414062 115.6267547607422 119.9999847412109 111.9098281860352 119.9999847412109 L 8.090179443359375 119.9999847412109 C 4.373252868652344 119.9999847412109 1.955780029296875 116.0884399414062 3.618026733398438 112.7639389038086 L 55.52785491943359 8.944259643554688 C 56.44916534423828 7.101654052734375 58.22458648681641 6.180335998535156 60 6.180335998535156 Z" stroke="none" fill="#fb426d"/>
    </g>
    <g id="多角形ツール_4" data-name="多角形ツール 4" transform="translate(1615.638 11063.284) rotate(45)" fill="rgba(255,255,255,0)">
      <path d="M 91.90983581542969 95 L 8.090167045593262 95 L 50 11.1803503036499 L 91.90983581542969 95 Z" stroke="none"/>
      <path d="M 49.9999885559082 22.36068725585938 L 16.18032836914062 89.99999237060547 L 83.81964111328125 89.99999237060547 L 49.9999885559082 22.36068725585938 M 49.9999885559082 6.180351257324219 C 51.7754020690918 6.180351257324219 53.55081558227539 7.101661682128906 54.47212982177734 8.94427490234375 L 96.3819580078125 92.76393127441406 C 98.04421997070312 96.08843231201172 95.62673950195312 99.99999237060547 91.90982818603516 99.99999237060547 L 8.090171813964844 99.99999237060547 C 4.373260498046875 99.99999237060547 1.955780029296875 96.08843231201172 3.618019104003906 92.76393127441406 L 45.52784729003906 8.94427490234375 C 46.44916152954102 7.101661682128906 48.22457504272461 6.180351257324219 49.9999885559082 6.180351257324219 Z" stroke="none" fill="#fb426d"/>
    </g>
    <g id="多角形ツール_5" data-name="多角形ツール 5" transform="matrix(0.985, -0.174, 0.174, 0.985, 1465.715, 10849.437)" fill="rgba(255,255,255,0)">
      <path d="M 101.9098358154297 105.0000076293945 L 8.090181350708008 105.0000076293945 C 8.090175628662109 105.0000076293945 8.090168952941895 105.0000076293945 8.090163230895996 105.0000076293945 L 54.99998092651367 11.18035316467285 C 54.99998474121094 11.1803503036499 54.99998474121094 11.18034648895264 54.99998474121094 11.18034362792969 L 101.9098358154297 105.0000076293945 Z" stroke="none"/>
      <path d="M 54.9999885559082 22.36067962646484 L 16.18032073974609 99.99999237060547 L 93.81965637207031 99.99999237060547 L 54.9999885559082 22.36067962646484 M 54.9999885559082 6.180351257324219 C 56.77539825439453 6.180351257324219 58.55080795288086 7.101661682128906 59.47211837768555 8.94427490234375 L 106.381950378418 102.7639236450195 C 108.0442123413086 106.0884475708008 105.6267395019531 109.9999923706055 101.9098358154297 109.9999923706055 L 8.090164184570312 109.9999923706055 C 4.373260498046875 109.9999923706055 1.955787658691406 106.0884475708008 3.618026733398438 102.7639236450195 L 50.52785873413086 8.94427490234375 C 51.44916534423828 7.101661682128906 53.22457885742188 6.180351257324219 54.9999885559082 6.180351257324219 Z" stroke="none" fill="#fb426d"/>
    </g>
    <g id="多角形ツール_6" data-name="多角形ツール 6" transform="matrix(0.985, -0.174, 0.174, 0.985, 1371.715, 10476.437)" fill="rgba(255,255,255,0)">
      <path d="M 41.90982818603516 46.50000381469727 L 8.090167999267578 46.50000381469727 C 7.362518310546875 46.50000381469727 6.978398323059082 46.05429458618164 6.814198017120361 45.78860473632812 C 6.649998188018799 45.52291488647461 6.423118114471436 44.98001480102539 6.748538017272949 44.32918548583984 L 23.65835762023926 10.50952434539795 C 24.01907730102539 9.788064956665039 24.65376853942871 9.680344581604004 24.99999809265137 9.680344581604004 C 25.34622764587402 9.680344581604004 25.98091888427734 9.788064956665039 26.34164810180664 10.50952434539795 L 43.25146865844727 44.32918548583984 C 43.57688903808594 44.98001480102539 43.35000991821289 45.52291488647461 43.18580627441406 45.78859329223633 C 43.02159881591797 46.05428314208984 42.63747787475586 46.50000381469727 41.90982818603516 46.50000381469727 Z" stroke="none"/>
      <path d="M 24.99999618530273 15.65248107910156 L 11.32623672485352 42.99999237060547 L 38.67377090454102 42.99999237060547 L 24.99999618530273 15.65248107910156 M 24.99999809265137 6.180343627929688 C 26.77541160583496 6.180343627929688 28.55082511901855 7.101654052734375 29.47213172912598 8.94427490234375 L 46.38197326660156 42.7639274597168 C 48.04421234130859 46.08843231201172 45.62674331665039 49.99999618530273 41.90982437133789 49.99999618530273 L 8.090171813964844 49.99999618530273 C 4.373264312744141 49.99999618530273 1.955783843994141 46.08843231201172 3.618038177490234 42.7639274597168 L 20.52786445617676 8.94427490234375 C 21.44917106628418 7.101654052734375 23.22458457946777 6.180343627929688 24.99999809265137 6.180343627929688 Z" stroke="none" fill="#fb426d"/>
    </g>
    <g id="多角形ツール_7" data-name="多角形ツール 7" transform="translate(2371.857 10496.5) rotate(-45)" fill="rgba(255,255,255,0)">
      <path d="M 131.9098205566406 135 L 8.090173721313477 135 L 70 11.18034267425537 L 131.9098205566406 135 Z" stroke="none"/>
      <path d="M 70 22.36068725585938 L 16.18034362792969 129.9999847412109 L 123.8196258544922 129.9999847412109 L 70 22.36068725585938 M 70 6.180328369140625 C 71.77541351318359 6.180328369140625 73.55083465576172 7.101638793945312 74.47213745117188 8.944259643554688 L 136.3819427490234 132.7639312744141 C 138.0442199707031 136.0884399414062 135.6267242431641 139.9999847412109 131.9098052978516 139.9999847412109 L 8.090164184570312 139.9999847412109 C 4.373245239257812 139.9999847412109 1.955780029296875 136.0884399414062 3.618026733398438 132.7639312744141 L 65.52786254882812 8.944259643554688 C 66.44916534423828 7.101638793945312 68.22458648681641 6.180328369140625 70 6.180328369140625 Z" stroke="none" fill="#fb426d"/>
    </g>
    <g id="多角形ツール_8" data-name="多角形ツール 8" transform="matrix(0.985, 0.174, -0.174, 0.985, 2156.071, 10905.408)" fill="rgba(255,255,255,0)">
      <path d="M 131.9098205566406 135 L 8.090173721313477 135 L 70 11.18034267425537 L 131.9098205566406 135 Z" stroke="none"/>
      <path d="M 70 22.36068725585938 L 16.18034362792969 129.9999847412109 L 123.8196258544922 129.9999847412109 L 70 22.36068725585938 M 70 6.180328369140625 C 71.77541351318359 6.180328369140625 73.55083465576172 7.101638793945312 74.47213745117188 8.944259643554688 L 136.3819427490234 132.7639312744141 C 138.0442199707031 136.0884399414062 135.6267242431641 139.9999847412109 131.9098052978516 139.9999847412109 L 8.090164184570312 139.9999847412109 C 4.373245239257812 139.9999847412109 1.955780029296875 136.0884399414062 3.618026733398438 132.7639312744141 L 65.52786254882812 8.944259643554688 C 66.44916534423828 7.101638793945312 68.22458648681641 6.180328369140625 70 6.180328369140625 Z" stroke="none" fill="#fb426d"/>
    </g>
    <g id="パス_14" data-name="パス 14" transform="matrix(0.985, -0.174, 0.174, 0.985, 2540.715, 10807.437)" fill="rgba(255,255,255,0)">
      <path d="M 41.90982818603516 46.50000381469727 L 8.090167999267578 46.50000381469727 C 7.362518310546875 46.50000381469727 6.978398323059082 46.05429458618164 6.814198017120361 45.78860473632812 C 6.649998188018799 45.52291488647461 6.423118114471436 44.98001480102539 6.748538017272949 44.32918548583984 L 23.65835762023926 10.50952434539795 C 24.01907730102539 9.788064956665039 24.65376853942871 9.680344581604004 24.99999809265137 9.680344581604004 C 25.34622764587402 9.680344581604004 25.98091888427734 9.788064956665039 26.34164810180664 10.50952434539795 L 43.25146865844727 44.32918548583984 C 43.57688903808594 44.98001480102539 43.35000991821289 45.52291488647461 43.18580627441406 45.78859329223633 C 43.02159881591797 46.05428314208984 42.63747787475586 46.50000381469727 41.90982818603516 46.50000381469727 Z" stroke="none"/>
      <path d="M 24.99999618530273 15.65248107910156 L 11.32623672485352 42.99999237060547 L 38.67377090454102 42.99999237060547 L 24.99999618530273 15.65248107910156 M 24.99999809265137 6.180343627929688 C 26.77541160583496 6.180343627929688 28.55082511901855 7.101654052734375 29.47213172912598 8.94427490234375 L 46.38197326660156 42.7639274597168 C 48.04421234130859 46.08843231201172 45.62674331665039 49.99999618530273 41.90982437133789 49.99999618530273 L 8.090171813964844 49.99999618530273 C 4.373264312744141 49.99999618530273 1.955783843994141 46.08843231201172 3.618038177490234 42.7639274597168 L 20.52786445617676 8.94427490234375 C 21.44917106628418 7.101654052734375 23.22458457946777 6.180343627929688 24.99999809265137 6.180343627929688 Z" stroke="none" fill="#fb426d"/>
    </g>
    <g id="多角形ツール_10" data-name="多角形ツール 10" transform="matrix(-0.985, 0.174, -0.174, -0.985, 2429.638, 11133.994)" fill="rgba(255,255,255,0)">
      <path d="M 41.90988159179688 46.50004959106445 L 8.090170860290527 46.50004959106445 C 7.362521171569824 46.50004959106445 6.978401184082031 46.05432891845703 6.814190864562988 45.78863906860352 C 6.649991035461426 45.5229606628418 6.423110961914062 44.98006057739258 6.748530864715576 44.32923126220703 L 23.65838050842285 10.50951957702637 C 24.01910018920898 9.788059234619141 24.6537914276123 9.680339813232422 25.00002098083496 9.680339813232422 C 25.34625053405762 9.680339813232422 25.98094177246094 9.788059234619141 26.34167098999023 10.50951957702637 L 43.25151062011719 44.32923126220703 C 43.57693099975586 44.98006057739258 43.35005187988281 45.5229606628418 43.18585205078125 45.78865051269531 C 43.02164077758789 46.05432891845703 42.63753128051758 46.50004959106445 41.90988159179688 46.50004959106445 Z" stroke="none"/>
      <path d="M 25.0000171661377 15.6524772644043 L 11.32623291015625 43.00004577636719 L 38.67380523681641 43.00004577636719 L 25.0000171661377 15.6524772644043 M 25.00002098083496 6.180343627929688 C 26.77543449401855 6.180343627929688 28.55084800720215 7.101654052734375 29.47215461730957 8.944271087646484 L 46.38200759887695 42.76398086547852 C 48.04426193237305 46.08848571777344 45.62678146362305 50.00004577636719 41.90987396240234 50.00004577636719 L 8.090167999267578 50.00004577636719 C 4.373260498046875 50.00004577636719 1.955780029296875 46.08848571777344 3.618034362792969 42.76398086547852 L 20.52788734436035 8.944271087646484 C 21.44919395446777 7.101654052734375 23.22460746765137 6.180343627929688 25.00002098083496 6.180343627929688 Z" stroke="none" fill="#fb426d"/>
    </g>
    <g id="多角形ツール_11" data-name="多角形ツール 11" transform="matrix(-0.985, 0.174, -0.174, -0.985, 2490.162, 10965.638)" fill="rgba(255,255,255,0)">
      <path d="M 145.9096069335938 148.9997863769531 L 8.090170860290527 148.9997863769531 C 8.090169906616211 148.9997863769531 8.090167999267578 148.9997863769531 8.090167045593262 148.9997863769531 C 8.090166091918945 148.9997863769531 8.090164184570312 148.9997711181641 8.090163230895996 148.9997711181641 C 8.090166091918945 148.9997711181641 8.090167999267578 148.9997711181641 8.090170860290527 148.999755859375 L 76.99988555908203 11.18035411834717 L 145.9096069335938 148.9997863769531 Z" stroke="none"/>
      <path d="M 76.99987030029297 22.36070251464844 L 16.18035888671875 143.999755859375 L 137.8194274902344 143.999755859375 L 76.99987030029297 22.36070251464844 M 76.99987030029297 6.180328369140625 C 78.77528381347656 6.180328369140625 80.55069732666016 7.101654052734375 81.47200012207031 8.944290161132812 L 150.3817443847656 146.7637023925781 C 152.0439758300781 150.0881958007812 149.6264953613281 153.999755859375 145.9095916748047 153.999755859375 L 8.09014892578125 153.999755859375 C 4.373260498046875 153.999755859375 1.955764770507812 150.0881958007812 3.618026733398438 146.7637023925781 L 72.52774047851562 8.944290161132812 C 73.44905090332031 7.101654052734375 75.22445678710938 6.180328369140625 76.99987030029297 6.180328369140625 Z" stroke="none" fill="#fb426d"/>
    </g>
    <g id="多角形ツール_12" data-name="多角形ツール 12" transform="matrix(0.985, -0.174, 0.174, 0.985, 2159.715, 10524.437)" fill="rgba(255,255,255,0)">
      <path d="M 91.90983581542969 95 L 8.090167045593262 95 L 50 11.1803503036499 L 91.90983581542969 95 Z" stroke="none"/>
      <path d="M 49.9999885559082 22.36068725585938 L 16.18032836914062 89.99999237060547 L 83.81964111328125 89.99999237060547 L 49.9999885559082 22.36068725585938 M 49.9999885559082 6.180351257324219 C 51.7754020690918 6.180351257324219 53.55081558227539 7.101661682128906 54.47212982177734 8.94427490234375 L 96.3819580078125 92.76393127441406 C 98.04421997070312 96.08843231201172 95.62673950195312 99.99999237060547 91.90982818603516 99.99999237060547 L 8.090171813964844 99.99999237060547 C 4.373260498046875 99.99999237060547 1.955780029296875 96.08843231201172 3.618019104003906 92.76393127441406 L 45.52784729003906 8.94427490234375 C 46.44916152954102 7.101661682128906 48.22457504272461 6.180351257324219 49.9999885559082 6.180351257324219 Z" stroke="none" fill="#fb426d"/>
    </g>
    <g id="多角形ツール_13" data-name="多角形ツール 13" transform="translate(2502.706 10607.726) rotate(25)" fill="rgba(255,255,255,0)">
      <path d="M 71.90982818603516 75 L 8.090171813964844 75 L 40 11.18034553527832 L 71.90984344482422 75 C 71.90983581542969 75 71.90983581542969 75 71.90982818603516 75 Z" stroke="none"/>
      <path d="M 39.99999237060547 22.36071395874023 L 16.18035125732422 70 L 63.81964111328125 70 L 39.99999237060547 22.36071395874023 M 39.99999618530273 6.180343627929688 C 41.77540969848633 6.180343627929688 43.55081939697266 7.101654052734375 44.47211837768555 8.94427490234375 L 76.3819580078125 72.76393890380859 C 78.04421997070312 76.08843994140625 75.62673950195312 80 71.90982055664062 80 L 8.090179443359375 80 C 4.373260498046875 80 1.955780029296875 76.08843994140625 3.6180419921875 72.76393890380859 L 35.52785873413086 8.94427490234375 C 36.44916915893555 7.101654052734375 38.22458648681641 6.180343627929688 39.99999618530273 6.180343627929688 Z" stroke="none" fill="#fb426d"/>
    </g>
    <g id="多角形ツール_14" data-name="多角形ツール 14" transform="matrix(-0.995, -0.105, 0.105, -0.995, 1520.867, 10712.117)" fill="rgba(255,255,255,0)">
      <path d="M 72.90979766845703 75.99996185302734 L 8.090167045593262 75.99996185302734 L 40.49998092651367 11.180344581604 L 72.90978240966797 75.99996948242188 L 72.90979766845703 75.99996185302734 Z" stroke="none"/>
      <path d="M 40.49998092651367 22.36069869995117 L 16.18035125732422 70.99995422363281 L 64.81960296630859 70.99995422363281 L 40.49998092651367 22.36069869995117 M 40.49997329711914 6.180351257324219 C 42.27538681030273 6.180351257324219 44.05080032348633 7.101654052734375 44.97212219238281 8.94427490234375 L 77.38191986083984 73.76390075683594 C 79.04418182373047 77.08839416503906 76.62670135498047 80.99995422363281 72.90978240966797 80.99995422363281 L 8.090164184570312 80.99995422363281 C 4.373260498046875 80.99995422363281 1.955780029296875 77.08839416503906 3.6180419921875 73.76390075683594 L 36.02783966064453 8.94427490234375 C 36.94915008544922 7.101654052734375 38.72455978393555 6.180351257324219 40.49997329711914 6.180351257324219 Z" stroke="none" fill="#fb426d"/>
    </g>
    <g id="多角形ツール_15" data-name="多角形ツール 15" transform="translate(1676.146 10466.284) rotate(-11)" fill="rgba(255,255,255,0)">
      <path d="M 71.90982818603516 75 L 8.090171813964844 75 L 40 11.18034553527832 L 71.90984344482422 75 C 71.90983581542969 75 71.90983581542969 75 71.90982818603516 75 Z" stroke="none"/>
      <path d="M 39.99999237060547 22.36071395874023 L 16.18035125732422 70 L 63.81964111328125 70 L 39.99999237060547 22.36071395874023 M 39.99999618530273 6.180343627929688 C 41.77540969848633 6.180343627929688 43.55081939697266 7.101654052734375 44.47211837768555 8.94427490234375 L 76.3819580078125 72.76393890380859 C 78.04421997070312 76.08843994140625 75.62673950195312 80 71.90982055664062 80 L 8.090179443359375 80 C 4.373260498046875 80 1.955780029296875 76.08843994140625 3.6180419921875 72.76393890380859 L 35.52785873413086 8.94427490234375 C 36.44916915893555 7.101654052734375 38.22458648681641 6.180343627929688 39.99999618530273 6.180343627929688 Z" stroke="none" fill="#fb426d"/>
    </g>
    <g id="多角形ツール_16" data-name="多角形ツール 16" transform="matrix(-0.985, 0.174, -0.174, -0.985, 1943.638, 11044.281)" fill="rgba(255,255,255,0)">
      <path d="M 131.9098663330078 135.0000152587891 L 8.090167045593262 135.0000152587891 L 69.99999237060547 11.18033599853516 C 70 11.18033599853516 70 11.18033599853516 70.00000762939453 11.18033599853516 C 70.00000762939453 11.18034362792969 70.00000762939453 11.1803503036499 70.00001525878906 11.18035793304443 L 131.9098663330078 135.0000305175781 C 131.9097290039062 134.9999084472656 131.9096984863281 134.9999542236328 131.90966796875 135.0000152587891 L 131.9098663330078 135.0000152587891 Z" stroke="none"/>
      <path d="M 70.00001525878906 22.36069488525391 L 16.18032073974609 130 L 123.8196716308594 130 L 70.00001525878906 22.36069488525391 M 70.00000762939453 6.180343627929688 C 71.77542114257812 6.180343627929688 73.55083465576172 7.101654052734375 74.47215270996094 8.94427490234375 L 136.3819885253906 132.7639465332031 C 138.0441284179688 136.0882720947266 135.6264190673828 140 131.9098815917969 140 C 131.90966796875 140 131.9100799560547 140 131.9098510742188 140 L 8.09014892578125 140 C 4.373260498046875 140.0000305175781 1.955764770507812 136.0884704589844 3.618011474609375 132.7639465332031 L 65.52787780761719 8.94427490234375 C 66.44918060302734 7.101654052734375 68.22459411621094 6.180343627929688 70.00000762939453 6.180343627929688 Z" stroke="none" fill="#fb426d"/>
    </g>
    <g id="多角形ツール_17" data-name="多角形ツール 17" transform="matrix(0.985, 0.174, -0.174, 0.985, 1409.443, 11075.754)" fill="rgba(255,255,255,0)">
      <path d="M 41.90987396240234 46.50004959106445 L 8.090174674987793 46.50004959106445 C 7.362514972686768 46.50004959106445 6.978404998779297 46.05432891845703 6.814194679260254 45.78865051269531 C 6.649994850158691 45.5229606628418 6.423114776611328 44.98006057739258 6.748534679412842 44.32921981811523 L 23.65838432312012 10.50951957702637 C 24.01910400390625 9.788059234619141 24.65379524230957 9.680339813232422 25.00002479553223 9.680339813232422 C 25.34624481201172 9.680339813232422 25.9809455871582 9.788059234619141 26.3416748046875 10.50951957702637 L 43.25151443481445 44.32923126220703 C 43.57693481445312 44.98006057739258 43.35006332397461 45.5229606628418 43.18585586547852 45.78863906860352 C 43.02165603637695 46.05432891845703 42.63753509521484 46.50004959106445 41.90987396240234 46.50004959106445 Z" stroke="none"/>
      <path d="M 25.00002098083496 15.6524772644043 L 11.32623672485352 43.00004577636719 L 38.67381286621094 43.00004577636719 L 25.00002098083496 15.6524772644043 M 25.00001907348633 6.180343627929688 C 26.77543067932129 6.180343627929688 28.55084419250488 7.101654052734375 29.47215843200684 8.944271087646484 L 46.38201141357422 42.76398086547852 C 48.04426574707031 46.08848571777344 45.62678527832031 50.00004577636719 41.90987777709961 50.00004577636719 L 8.090171813964844 50.00004577636719 C 4.373264312744141 50.00004577636719 1.955783843994141 46.08848571777344 3.618038177490234 42.76398086547852 L 20.52789115905762 8.944271087646484 C 21.44919776916504 7.101654052734375 23.22460746765137 6.180343627929688 25.00001907348633 6.180343627929688 Z" stroke="none" fill="#fb426d"/>
    </g>
    <g id="多角形ツール_18" data-name="多角形ツール 18" transform="translate(1592.146 10683.284) rotate(-11)" fill="rgba(255,255,255,0)">
      <path d="M 51.90983200073242 56.5 L 8.090167045593262 56.5 C 7.362511157989502 56.5 6.978400230407715 56.05427932739258 6.814188957214355 55.78860092163086 C 6.649988651275635 55.52291107177734 6.423110961914062 54.98001098632812 6.748533248901367 54.32917785644531 L 28.65836715698242 10.50952434539795 C 29.01908874511719 9.788068771362305 29.65377807617188 9.680346488952637 30 9.680346488952637 C 30.34622192382812 9.680346488952637 30.98091125488281 9.788068771362305 31.34164428710938 10.50952434539795 L 53.25146484375 54.32917785644531 C 53.57688903808594 54.98002243041992 53.35000991821289 55.52291107177734 53.18581008911133 55.78860092163086 C 53.02161026000977 56.05429077148438 52.63748931884766 56.5 51.90983200073242 56.5 Z" stroke="none"/>
      <path d="M 30 15.65245819091797 L 11.32622909545898 53 L 48.67377090454102 53 L 30 15.65245819091797 M 30 6.180339813232422 C 31.77541351318359 6.180339813232422 33.55082702636719 7.101654052734375 34.47214508056641 8.94427490234375 L 56.38197326660156 52.76393127441406 C 58.04421234130859 56.08844375610352 55.62674331665039 60.00000381469727 51.90982818603516 60.00000381469727 L 8.090171813964844 60.00000381469727 C 4.373256683349609 60.00000381469727 1.955783843994141 56.08844375610352 3.618026733398438 52.76393127441406 L 25.52785873413086 8.94427490234375 C 26.44917297363281 7.101654052734375 28.22458648681641 6.180339813232422 30 6.180339813232422 Z" stroke="none" fill="#fb426d"/>
    </g>
    <g id="多角形ツール_19" data-name="多角形ツール 19" transform="translate(1709.827 11024.866) rotate(150)" fill="rgba(255,255,255,0)">
      <path d="M 41.90988159179688 46.50004959106445 L 8.090170860290527 46.50004959106445 C 7.362521171569824 46.50004959106445 6.978401184082031 46.05432891845703 6.814190864562988 45.78863906860352 C 6.649991035461426 45.5229606628418 6.423110961914062 44.98006057739258 6.748530864715576 44.32923126220703 L 23.65838050842285 10.50951957702637 C 24.01910018920898 9.788059234619141 24.6537914276123 9.680339813232422 25.00002098083496 9.680339813232422 C 25.34625053405762 9.680339813232422 25.98094177246094 9.788059234619141 26.34167098999023 10.50951957702637 L 43.25151062011719 44.32923126220703 C 43.57693099975586 44.98006057739258 43.35005187988281 45.5229606628418 43.18585205078125 45.78865051269531 C 43.02164077758789 46.05432891845703 42.63753128051758 46.50004959106445 41.90988159179688 46.50004959106445 Z" stroke="none"/>
      <path d="M 25.0000171661377 15.6524772644043 L 11.32623291015625 43.00004577636719 L 38.67380523681641 43.00004577636719 L 25.0000171661377 15.6524772644043 M 25.00002098083496 6.180343627929688 C 26.77543449401855 6.180343627929688 28.55084800720215 7.101654052734375 29.47215461730957 8.944271087646484 L 46.38200759887695 42.76398086547852 C 48.04426193237305 46.08848571777344 45.62678146362305 50.00004577636719 41.90987396240234 50.00004577636719 L 8.090167999267578 50.00004577636719 C 4.373260498046875 50.00004577636719 1.955780029296875 46.08848571777344 3.618034362792969 42.76398086547852 L 20.52788734436035 8.944271087646484 C 21.44919395446777 7.101654052734375 23.22460746765137 6.180343627929688 25.00002098083496 6.180343627929688 Z" stroke="none" fill="#fb426d"/>
    </g>
  </g>
</svg>
