<svg xmlns="http://www.w3.org/2000/svg" width="357.473" height="357.473" viewBox="0 0 357.473 357.473">
  <g id="グループ化_1" data-name="グループ化 1" transform="translate(-391.547 -551.571)">
    <ellipse id="楕円形_55" data-name="楕円形 55" cx="178.736" cy="178.736" rx="178.736" ry="178.736" transform="translate(391.547 551.571)" fill="#eb1e72" opacity="0.2"/>
    <ellipse id="楕円形_54" data-name="楕円形 54" cx="158.877" cy="158.877" rx="158.877" ry="158.877" transform="translate(411.407 571.431)" fill="#eb1e72" opacity="0.296"/>
    <ellipse id="楕円形_53" data-name="楕円形 53" cx="141.568" cy="141.568" rx="141.568" ry="141.568" transform="translate(428.618 588.642)" fill="#ff217c"/>
    <path id="パス_6" data-name="パス 6" d="M141.57,224.381A141.568,141.568,0,0,1,0,82.813c0-7.551-.174-9.206,2.168-24.837.107-.515,1.63-7.8,1.63-7.8A145.4,145.4,0,0,1,11.842,26.13,132.523,132.523,0,0,1,25,2.445c-.038.225,71.294,86.278,91.439,104.587,25.854,23.5,100.969,60.808,131.736,68.89-16.155,18.826-36.98,30.738-38.4,30.941a139.2,139.2,0,0,1-50.671,16.421A144.639,144.639,0,0,1,141.57,224.381Z" transform="translate(428.616 647.397)" fill="#eb1e72"/>
    <path id="パス_5" data-name="パス 5" d="M141.57,212.715A141.568,141.568,0,0,1,0,71.147C0,63.6-.172,61.942,2.17,46.311c.107-.515,1.7-7.858,1.7-7.858s33.358,69.1,69.877,102.3c45.28,41.153,139.34,53.978,136.034,54.449a139.2,139.2,0,0,1-50.671,16.421A144.639,144.639,0,0,1,141.57,212.715Z" transform="translate(428.616 659.063)" fill="#d31b66"/>
  </g>
</svg>
