<svg xmlns="http://www.w3.org/2000/svg" width="199.949" height="200.143" viewBox="0 0 199.949 200.143">
  <g id="グループ化_851" data-name="グループ化 851" transform="translate(229.839 150.426) rotate(135)">
    <g id="グループ化_850" data-name="グループ化 850" transform="translate(42.27 0)">
      <path id="パス_661" data-name="パス 661" d="M0,62s14.926-.954,14-22.347S0,0,0,0Z" transform="translate(14 0)" fill="#f70808"/>
      <path id="パス_662" data-name="パス 662" d="M0,39.314a10.3,10.3,0,0,0,8.039-4.768c1.1-1.824,1.028-5.007.838-9.4C8.29,11.579,0,0,0,0Z" transform="translate(14 22.686)" fill="#f8810b"/>
      <path id="パス_663" data-name="パス 663" d="M14.041,62s-14.926-.954-14-22.347S14.041,0,14.041,0Z" transform="translate(0 0)" fill="#fb4242"/>
      <path id="パス_664" data-name="パス 664" d="M8.989,39.314A10.3,10.3,0,0,1,.95,34.546c-1.1-1.824-1.028-5.007-.838-9.4C.7,11.579,8.989,0,8.989,0Z" transform="translate(5.052 22.686)" fill="#fb9e42"/>
    </g>
    <rect id="長方形_98" data-name="長方形 98" width="36" height="8" transform="translate(38.27 66)" fill="#222"/>
    <g id="グループ化_849" data-name="グループ化 849" transform="translate(0 42.763)">
      <path id="パス_657" data-name="パス 657" d="M10.749,66.237s17.721-11.68,22.34-29.792S31.432,0,31.432,0,25.276,11.67,17.448,19.648A54.8,54.8,0,0,1,0,31.291Z" transform="translate(77.521 0)" fill="#136af8"/>
      <path id="パス_655" data-name="パス 655" d="M0,165.091s42.045-36.443,35.117-98.382S20.5-.87,19.7.091,0,4.677,0,4.677Z" transform="translate(56.153 25.146)" fill="#ddd"/>
      <path id="パス_656" data-name="パス 656" d="M0,80S7.02,67.062,7.083,38.8,0,0,0,0Z" transform="translate(56.187 0.237)" fill="#136af8"/>
      <path id="パス_657-2" data-name="パス 657" d="M24.037,66.237S6.316,54.557,1.7,36.446,3.353,0,3.353,0,9.51,11.67,17.337,19.648A54.8,54.8,0,0,0,34.785,31.291Z" transform="translate(0 0)" fill="#4288fb"/>
      <path id="パス_655-2" data-name="パス 655" d="M35.888,165.091S-6.157,128.648.771,66.709,15.385-.87,16.193.091s19.7,4.586,19.7,4.586Z" transform="translate(20.266 25.146)" fill="#fff"/>
      <path id="パス_656-2" data-name="パス 656" d="M7.084,80S.064,67.062,0,38.8,7.084,0,7.084,0Z" transform="translate(49.1 0.237)" fill="#4288fb"/>
      <path id="パス_658" data-name="パス 658" d="M0,21.985s3.544-2.841,9.253-9.977A104.779,104.779,0,0,0,17.749,0H0Z" transform="translate(56.19 168.255)" fill="#136af8"/>
      <path id="パス_659" data-name="パス 659" d="M17.749,21.985S14.2,19.144,8.5,12.008A104.78,104.78,0,0,1,0,0H17.749Z" transform="translate(38.44 168.255)" fill="#4288fb"/>
      <g id="パス_660" data-name="パス 660" transform="translate(39.27 106.071)" fill="#333">
        <path d="M 16.50000381469727 31.00002861022949 C 12.62691402435303 31.00002861022949 8.985644340515137 29.49176788330078 6.246954441070557 26.7530689239502 C 3.508254289627075 24.01437950134277 1.999994277954102 20.37310791015625 1.999994277954102 16.50001907348633 C 1.999994277954102 12.62692832946777 3.508254289627075 8.985658645629883 6.246934413909912 6.246978759765625 C 8.985624313354492 3.508288621902466 12.62689399719238 2.000028610229492 16.49998474121094 2.000028610229492 C 20.37307357788086 2.000028610229492 24.01434516906738 3.508288621902466 26.7530345916748 6.246988773345947 C 29.49173355102539 8.985678672790527 30.9999942779541 12.62694835662842 30.9999942779541 16.50003814697266 C 30.9999942779541 20.37312889099121 29.49173355102539 24.0143985748291 26.75305366516113 26.75308799743652 C 24.01436424255371 29.49176788330078 20.37309455871582 31.00002861022949 16.50000381469727 31.00002861022949 Z" stroke="none"/>
        <path d="M 16.50000381469727 29.00002861022949 L 16.50002479553223 29.00002861022949 C 19.83855438232422 29.00002861022949 22.97747421264648 27.69972801208496 25.33857345581055 25.33864784240723 C 27.69968414306641 22.97755813598633 28.9999942779541 19.83861923217773 28.9999942779541 16.50003814697266 C 28.9999942779541 13.16116905212402 27.69976425170898 10.02213859558105 25.33882522583008 7.661198616027832 C 22.97788429260254 5.300258636474609 19.83885383605957 4.000028610229492 16.49998474121094 4.000028610229492 L 16.49996376037598 4.000028610229492 C 13.16143417358398 4.000028610229492 10.02251434326172 5.300328731536865 7.66141414642334 7.661408424377441 C 5.300314426422119 10.02249908447266 3.999994277954102 13.16144847869873 3.999994277954102 16.50001907348633 C 3.999994277954102 19.83888816833496 5.300224304199219 22.97791862487793 7.661164283752441 25.33885955810547 C 10.02210426330566 27.69979858398438 13.16113471984863 29.00002861022949 16.50002479553223 29.00002861022949 L 16.50000381469727 29.00002861022949 M 16.50000381469727 33.00003051757812 C 7.387304306030273 33.00003051757812 -5.7220458984375e-06 25.61271858215332 -5.7220458984375e-06 16.50001907348633 C -1.572204564581625e-05 7.387328624725342 7.387284278869629 1.861022974480875e-05 16.49998474121094 2.86102294921875e-05 C 25.61268424987793 2.86102294921875e-05 32.99999237060547 7.387338638305664 32.99999237060547 16.50003814697266 C 33.00000381469727 25.61273956298828 25.61270523071289 33.00003814697266 16.50000381469727 33.00003051757812 Z" stroke="none" fill="#4288fb"/>
      </g>
    </g>
  </g>
</svg>
