<svg xmlns="http://www.w3.org/2000/svg" width="1590.926" height="984.403" viewBox="0 0 1590.926 984.403">
  <g id="グループ化_848" data-name="グループ化 848" transform="translate(-209.986 -65.723)">
    <g id="Rectangle_3" data-name="Rectangle 3" transform="translate(809.827 901.676)" fill="none" stroke="#74f7da" stroke-miterlimit="10" stroke-width="3.2" opacity="0.5">
      <rect width="20.794" height="20.013" stroke="none"/>
      <rect x="1.6" y="1.6" width="17.594" height="16.813" fill="none"/>
    </g>
    <g id="Rectangle_3_Copy_3" data-name="Rectangle 3 Copy 3" transform="translate(624.955 519.607)" fill="#8773f7" stroke="#8672f7" stroke-miterlimit="10" stroke-width="11.2" opacity="0.5">
      <rect width="20" height="20" rx="10" stroke="none"/>
      <rect x="5.6" y="5.6" width="8.8" height="8.8" rx="4.4" fill="none"/>
    </g>
    <path id="Triangle_2" data-name="Triangle 2" d="M11.2,0l11.2,18.412H0Z" transform="translate(716.821 748.577)" fill="#a2caff" stroke="#a2caff" stroke-miterlimit="10" stroke-width="4.8" opacity="0.4"/>
    <path id="Triangle_2_Copy" data-name="Triangle 2 Copy" d="M8,0l8,12.809H0Z" transform="translate(334.973 949.085)" fill="none" stroke="#f9e922" stroke-miterlimit="10" stroke-width="3.2"/>
    <path id="Triangle_2_Copy_2" data-name="Triangle 2 Copy 2" d="M11.2,0l11.2,18.412H0Z" transform="translate(250 601.476)" fill="none" stroke="#a2caff" stroke-miterlimit="10" stroke-width="4.8"/>
    <path id="Triangle_2_Copy_3" data-name="Triangle 2 Copy 3" d="M38.4,0l38.4,63.154H0Z" transform="translate(360.993 731.556)" fill="none" stroke="#a2caff" stroke-miterlimit="10" stroke-width="6.4" opacity="0.5"/>
    <ellipse id="Oval_2" data-name="Oval 2" cx="8.397" cy="8.406" rx="8.397" ry="8.406" transform="translate(569.101 731.963)" fill="none" stroke="#fe9192" stroke-miterlimit="10" stroke-width="3.2" opacity="0.4"/>
    <ellipse id="Oval_2_Copy" data-name="Oval 2 Copy" cx="9.597" cy="9.606" rx="9.597" ry="9.606" transform="translate(671.067 1028.513)" fill="none" stroke="#fe9192" stroke-miterlimit="10" stroke-width="4.8"/>
    <g id="Rectangle_3-2" data-name="Rectangle 3" transform="matrix(-0.469, 0.883, -0.883, -0.469, 949.119, 578.925)" fill="none" stroke="#74f7da" stroke-miterlimit="10" stroke-width="3.2" opacity="0.5">
      <rect width="20.794" height="20.013" stroke="none"/>
      <rect x="1.6" y="1.6" width="17.594" height="16.813" fill="none"/>
    </g>
    <path id="Triangle_2-2" data-name="Triangle 2" d="M11.2,18.412,22.393,0H0Z" transform="matrix(-0.469, 0.883, -0.883, -0.469, 809.494, 434.198)" fill="#a2caff" stroke="#a2caff" stroke-miterlimit="10" stroke-width="4.8" opacity="0.4"/>
    <path id="Triangle_2_Copy-2" data-name="Triangle 2 Copy" d="M8,0l8,12.809H0Z" transform="translate(1069.027 210.391) rotate(180)" fill="none" stroke="#f9e922" stroke-miterlimit="10" stroke-width="3.2"/>
    <ellipse id="Oval_2-2" data-name="Oval 2" cx="8.397" cy="8.406" rx="8.397" ry="8.406" transform="matrix(-0.469, 0.883, -0.883, -0.469, 909.457, 285.199)" fill="none" stroke="#fe9192" stroke-miterlimit="10" stroke-width="3.2" opacity="0.4"/>
    <ellipse id="Oval_2_Copy-2" data-name="Oval 2 Copy" cx="9.597" cy="9.606" rx="9.597" ry="9.606" transform="translate(725.933 127.963) rotate(180)" fill="none" stroke="#fe9192" stroke-miterlimit="10" stroke-width="4.8"/>
    <g id="Rectangle_3_Copy_3-2" data-name="Rectangle 3 Copy 3" transform="translate(1670.844 699.705)" fill="#8773f7" stroke="#8672f7" stroke-miterlimit="10" stroke-width="11.2" opacity="0.5">
      <rect width="20" height="20" rx="10" stroke="none"/>
      <rect x="5.6" y="5.6" width="8.8" height="8.8" rx="4.4" fill="none"/>
    </g>
    <path id="Triangle_2-3" data-name="Triangle 2" d="M11.2,0l11.2,18.412H0Z" transform="translate(1606.821 826.577)" fill="#a2caff" stroke="#a2caff" stroke-miterlimit="10" stroke-width="4.8" opacity="0.4"/>
    <path id="Triangle_2_Copy-3" data-name="Triangle 2 Copy" d="M8,0l8,12.809H0Z" transform="translate(1160.973 916.085)" fill="none" stroke="#f9e922" stroke-miterlimit="10" stroke-width="3.2"/>
    <path id="Triangle_2_Copy_2-2" data-name="Triangle 2 Copy 2" d="M11.2,0l11.2,18.412H0Z" transform="translate(1125 646.476)" fill="none" stroke="#a2caff" stroke-miterlimit="10" stroke-width="4.8"/>
    <ellipse id="Oval_2-3" data-name="Oval 2" cx="8.397" cy="8.406" rx="8.397" ry="8.406" transform="translate(1236.101 745.963)" fill="none" stroke="#fe9192" stroke-miterlimit="10" stroke-width="3.2" opacity="0.4"/>
    <ellipse id="Oval_2_Copy-3" data-name="Oval 2 Copy" cx="9.597" cy="9.606" rx="9.597" ry="9.606" transform="translate(1504.067 938.513)" fill="none" stroke="#fe9192" stroke-miterlimit="10" stroke-width="4.8"/>
    <g id="Rectangle_3-3" data-name="Rectangle 3" transform="translate(1317.173 289.801) rotate(180)" fill="none" stroke="#74f7da" stroke-miterlimit="10" stroke-width="3.2" opacity="0.5">
      <rect width="20.794" height="20.013" stroke="none"/>
      <rect x="1.6" y="1.6" width="17.594" height="16.813" fill="none"/>
    </g>
    <g id="Rectangle_3_Copy_3-3" data-name="Rectangle 3 Copy 3" transform="translate(1409.689 65.723)" fill="#8773f7" stroke="#8672f7" stroke-miterlimit="10" stroke-width="11.2" opacity="0.5">
      <rect width="20" height="20" rx="10" stroke="none"/>
      <rect x="5.6" y="5.6" width="8.8" height="8.8" rx="4.4" fill="none"/>
    </g>
    <path id="Triangle_2-4" data-name="Triangle 2" d="M11.2,0l11.2,18.412H0Z" transform="translate(1476.179 351.899) rotate(180)" fill="#a2caff" stroke="#a2caff" stroke-miterlimit="10" stroke-width="4.8" opacity="0.4"/>
    <path id="Triangle_2_Copy-4" data-name="Triangle 2 Copy" d="M8,0l8,12.809H0Z" transform="translate(1798.027 115.391) rotate(180)" fill="none" stroke="#f9e922" stroke-miterlimit="10" stroke-width="3.2"/>
    <ellipse id="Oval_2-4" data-name="Oval 2" cx="8.397" cy="8.406" rx="8.397" ry="8.406" transform="translate(1660.899 394.513) rotate(180)" fill="none" stroke="#fe9192" stroke-miterlimit="10" stroke-width="3.2" opacity="0.4"/>
    <ellipse id="Oval_2_Copy-4" data-name="Oval 2 Copy" cx="30.597" cy="30.606" rx="30.597" ry="30.606" transform="translate(1590.933 209.963) rotate(180)" fill="none" stroke="#fe9192" stroke-miterlimit="10" stroke-width="8.8" opacity="0.597"/>
    <path id="Triangle_2_Copy-5" data-name="Triangle 2 Copy" d="M8,0l8,12.809H0Z" transform="translate(531.455 250.448) rotate(-107)" fill="none" stroke="#f9e922" stroke-miterlimit="10" stroke-width="3.2"/>
    <g id="Rectangle_3-4" data-name="Rectangle 3" transform="translate(216.066 325.968) rotate(-107)" fill="none" stroke="#74f7da" stroke-miterlimit="10" stroke-width="3.2" opacity="0.5">
      <rect width="20.794" height="20.013" stroke="none"/>
      <rect x="1.6" y="1.6" width="17.594" height="16.813" fill="none"/>
    </g>
    <ellipse id="Oval_2_Copy-5" data-name="Oval 2 Copy" cx="9.597" cy="9.606" rx="9.597" ry="9.606" transform="translate(388.14 517.16) rotate(45)" fill="none" stroke="#fe9192" stroke-miterlimit="10" stroke-width="4.8"/>
    <g id="Rectangle_3_Copy_3-4" data-name="Rectangle 3 Copy 3" transform="translate(939.689 816.723)" fill="#8773f7" stroke="#8672f7" stroke-miterlimit="10" stroke-width="11.2" opacity="0.5">
      <rect width="20" height="20" rx="10" stroke="none"/>
      <rect x="5.6" y="5.6" width="8.8" height="8.8" rx="4.4" fill="none"/>
    </g>
  </g>
</svg>
